<svg width="26" height="26" viewBox="0 0 26 26" fill="none" xmlns="http://www.w3.org/2000/svg">
<path d="M18.4167 22.75V15.1667C18.4167 14.8793 18.3025 14.6038 18.0994 14.4006C17.8962 14.1975 17.6207 14.0833 17.3333 14.0833H8.66667C8.37935 14.0833 8.1038 14.1975 7.90063 14.4006C7.69747 14.6038 7.58333 14.8793 7.58333 15.1667V22.75M7.58333 3.25V7.58333C7.58333 7.87065 7.69747 8.1462 7.90063 8.34937C8.1038 8.55253 8.37935 8.66667 8.66667 8.66667H16.25M16.4667 3.25C17.0382 3.25814 17.5833 3.49177 17.9833 3.9L22.1 8.01667C22.5082 8.4167 22.7419 8.96183 22.75 9.53333V20.5833C22.75 21.158 22.5217 21.7091 22.1154 22.1154C21.7091 22.5217 21.158 22.75 20.5833 22.75H5.41667C4.84203 22.75 4.29093 22.5217 3.8846 22.1154C3.47827 21.7091 3.25 21.158 3.25 20.5833V5.41667C3.25 4.84203 3.47827 4.29093 3.8846 3.8846C4.29093 3.47827 4.84203 3.25 5.41667 3.25H16.4667Z" stroke="#424769" stroke-width="2" stroke-linecap="round" stroke-linejoin="round"/>
</svg>
